Coordinates
version=1
nRows=16
nColumns=36
inDegrees=yes

Units are S.I. units (second, meters, Newtons, ...)
If the header above contains a line with 'inDegrees', this indicates whether rotational values are in degrees (yes) or radians (no).

endheader
time	pelvis_tilt	pelvis_list	pelvis_rotation	pelvis_tx	pelvis_ty	pelvis_tz	hip_flexion_r	hip_adduction_r	hip_rotation_r	knee_angle_r	knee_angle_r_beta	ankle_angle_r	subtalar_angle_r	mtp_angle_r	hip_flexion_l	hip_adduction_l	hip_rotation_l	knee_angle_l	knee_angle_l_beta	ankle_angle_l	subtalar_angle_l	mtp_angle_l	lumbar_extension	lumbar_bending	lumbar_rotation	arm_flex_r	arm_add_r	arm_rot_r	elbow_flex_r	pro_sup_r	arm_flex_l	arm_add_l	arm_rot_l	elbow_flex_l	pro_sup_l
      1.46000000	      6.40289231	     -2.27358297	      6.42011778	     -0.41211547	      1.21219765	     -0.57657540	     10.24196628	     -1.16224561	    -17.75713224	     10.10996888	      0.17645224	    -22.70661509	      4.19190209	     -7.44717974	     11.16791334	     -6.27082711	    -10.03240605	      9.34114880	      0.16303380	    -25.73165320	      7.89548140	     -7.44717974	      0.51551370	      3.13769713	     -1.44223010	    179.84827416	    -71.88280125	    107.49010909	     87.95878411	    115.46567935	    177.57609925	    -89.32673450	    116.37627852	     93.04557372	    106.35393819
      1.47000000	      5.69537768	     -2.48542751	      6.64228892	     -0.40045092	      1.18973735	     -0.57674563	     12.20242861	     -1.44178177	    -17.55505128	     13.09529538	      0.22855602	    -24.10635857	      1.99263041	     -7.47921942	     13.48295749	     -6.50889475	     -8.78041852	     12.39319858	      0.21630212	    -26.77524155	      6.80730904	     -7.47921942	    -10.03620729	     -0.66350036	    -25.08021794	    177.81304460	    -84.36231100	    115.60748328	     96.67002687	    111.24873782	     83.31621624	   -170.75195150	     41.79627449	    109.18119310	     73.20811720
      1.48000000	      6.35747400	     -2.38335493	      6.91095559	     -0.39040627	      1.16618456	     -0.57547568	     12.95114720	     -1.72332193	    -16.62853834	     16.66297182	      0.29082372	    -25.15238219	     -0.48664617	     -7.46982105	     14.59046265	     -6.60231839	     -7.13141105	     15.88974620	      0.27732839	    -27.91160479	      6.17391623	     -7.46982105	    -13.39783571	      1.61701122	     -6.64875707	     83.97507349	   -132.57925798	     23.08614047	    107.58548049	    101.03828949	     89.22696224	   -149.12741547	     49.04452114	    113.25072956	     74.00394210
      1.49000000	      7.00720607	     -2.39349335	      6.94628516	     -0.38110563	      1.14162974	     -0.57506101	     14.05941597	     -1.88261886	    -15.12388476	     20.47155093	      0.35729597	    -26.74025499	     -1.75276483	     -7.47092390	     15.85592671	     -6.60199869	     -5.10220469	     19.51646550	      0.34062658	    -29.22025269	      5.36986217	     -7.47092390	    -14.43668396	      1.60277585	     -6.34680884	     90.72060499	   -134.52495486	     29.10267983	    111.13838907	    101.12906492	     92.67731427	   -151.43309670	     55.99088906	    113.66165469	     74.13243598
      1.50000000	      7.46163016	     -2.30667445	      6.90484558	     -0.37226160	      1.11589961	     -0.57451162	     15.71048577	     -2.08127428	    -13.30014424	     24.61098845	      0.42954278	    -28.29665715	     -2.72260029	     -7.47209708	     17.45952333	     -6.37360767	     -3.18827532	     23.67485089	      0.41320410	    -28.92633660	      3.56884428	     -7.47209708	    -15.35275935	      1.45022577	     -6.14304037	     97.22969665	   -136.64424955	     35.39463203	    114.54072994	    101.21407687	     96.01148263	   -153.90612143	     63.22451615	    113.68920320	     74.35568193
      1.51000000	      7.85261740	     -2.17645485	      6.58385037	     -0.36374801	      1.08893672	     -0.57355747	     17.62536965	     -2.27220789	    -11.73608738	     29.91631766	      0.52213824	    -25.24364935	     -4.01718051	     -7.47463915	     19.26540423	     -6.22009298	     -2.02069503	     29.58799414	      0.51640792	    -22.86315054	      1.12882292	     -7.47463915	    -16.19089803	      1.10484323	     -6.11767305	    103.52778334	   -138.24956832	     42.39921414	    117.71683546	    100.99358259	     98.93972784	   -156.83807779	     70.41743760	    113.09445359	     74.83165087
      1.52000000	      8.50946285	     -2.09413751	      6.24323646	     -0.35586115	      1.06105792	     -0.57241228	     19.14119019	     -2.22342353	    -10.16884310	     36.69484713	      0.64044590	    -14.99800395	     -5.47046131	     -7.47762548	     20.91688390	     -6.31679989	     -1.49144510	     36.99886498	      0.64575201	    -11.37698860	     -0.53012747	     -7.47762548	    -17.34273090	      0.88792848	     -5.87980528	    109.21396138	   -140.30715491	     49.04215041	    120.61424003	    100.32459488	    101.52987886	   -159.05479592	     77.81567553	    111.90857762	     75.15359795
      1.53000000	      9.13187335	     -2.09681963	      5.89803480	     -0.34865295	      1.03351687	     -0.57112141	     20.30076157	     -1.82612395	     -8.48950514	     43.24248488	      0.75472374	     -2.19917135	     -6.02572792	     -7.47948433	     22.45900820	     -6.55006573	     -1.14794392	     43.97870790	      0.76757325	      0.01543562	     -0.89904268	     -7.47948433	    -18.39590706	      0.68593947	     -5.90221878	    115.07596915	   -141.97328714	     56.31013076	    123.25800189	    100.41180732	    104.21599968	   -161.16610607	     85.13621954	    110.27084228	     75.80859281
      1.54000000	      8.92891718	     -2.25913187	      5.59815042	     -0.34235761	      1.00735654	     -0.56956187	     21.95150098	     -1.13656809	     -7.21263529	     48.06091130	      0.83882114	      7.63883487	     -6.59076439	     -7.48007231	     24.66457775	     -6.80167532	     -0.88573747	     49.46972053	      0.86340950	      8.04723017	     -1.51892948	     -7.48007231	    -18.46159932	      0.52035671	     -6.20703732	    121.76608644	   -143.61378999	     64.89306444	    125.52990873	    101.62969088	    107.47955989	   -163.16263739	     92.50945503	    108.07281200	     77.16355804
      1.55000000	      7.66438337	     -2.68136420	      5.30770791	     -0.33669874	      0.98320461	     -0.56770052	     24.23462407	     -0.14620775	     -6.69710265	     51.02135035	      0.89049055	     14.47280632	     -8.39219256	     -7.48003706	     27.78245370	     -7.16573081	     -0.71284167	     53.87525466	      0.94030058	     13.89578526	     -2.69713661	     -7.48003706	    -17.25954208	      0.51103756	     -6.66897736	    129.16653242	   -145.75166939	     74.73766319	    126.91892509	    103.31022168	    111.47572488	   -165.06169661	     99.86803720	    105.04332866	     78.96916447
      1.56000000	      6.27546787	     -3.25372557	      4.98781540	     -0.33196231	      0.96209164	     -0.56592312	     26.37133841	      1.06065017	     -6.47784669	     53.19169634	      0.92837024	     19.66626944	    -10.81865500	     -7.47956126	     30.80887972	     -7.57978944	     -0.43426323	     57.72447380	      1.00748213	     18.81134873	     -3.90768716	     -7.47956126	    -15.95489615	      0.74440536	     -6.93123131	    136.38713941	   -148.68109813	     84.46414456	    127.00363837	    104.96481772	    116.31393947	   -166.54964419	    107.10578304	    101.20859397	     80.43634270
      1.57000000	      5.85936708	     -3.62352366	      4.65817127	     -0.32913667	      0.94533248	     -0.56464438	     28.07631935	      2.14058129	     -5.72939358	     56.08722830	      0.97890680	     22.59073216	    -13.10646037	     -7.47833854	     32.53944435	     -7.67870598	      0.12087759	     60.89371114	      1.06279575	     22.22084111	     -5.58865161	     -7.47833854	    -16.12255489	      1.08412797	     -6.21501978	    142.35973818	   -152.69779778	     91.90302674	    125.70356789	    106.95913230	    122.56862589	   -166.76569945	    114.58457597	     96.81389275	     80.88921311
      1.58000000	      5.18867834	     -3.77160010	      4.53922687	     -0.32834389	      0.93002537	     -0.56369932	     31.39157751	      2.84626394	     -4.41745276	     60.74044699	      1.06012079	     22.88830677	    -14.90848707	     -7.47800050	     34.82798340	     -7.24233176	      1.31915072	     64.06439743	      1.11813467	     24.24518527	     -6.59907910	     -7.47800050	    -16.19274099	      1.09464558	     -6.69832964	    148.87715790	   -155.83860220	    100.97898434	    123.64981469	    107.60925230	    128.67794689	   -168.00388731	    120.49241993	     92.33038148	     81.83642158
      1.59000000	      4.97704663	     -3.72301750	      4.50158236	     -0.32857992	      0.91733914	     -0.56307593	     34.37397321	      3.28096216	     -3.16025194	     65.33805421	      1.14036417	     22.51232034	    -15.79772999	     -7.47707291	     36.66116611	     -6.49104259	      2.71833092	     67.03715114	      1.17001901	     25.13778309	     -7.67441109	     -7.47707291	    -17.16226152	      1.10842623	     -6.32952652	    153.91643168	   -159.47030715	    107.89809494	    121.12208146	    109.08864178	    135.61611077	   -168.36858658	    126.75514041	     87.97092725	     82.32758952
      1.60000000	      4.90704843	     -3.86825625	      4.45655665	     -0.32903950	      0.90631602	     -0.56270085	     36.35011999	      3.89459934	     -2.36965443	     68.51735511	      1.19585344	     22.71163065	    -16.49960754	     -7.47733194	     38.37875845	     -5.96195214	      4.00847928	     69.90791586	      1.22012330	     25.58839734	     -8.69516767	     -7.47733194	    -18.43690321	      1.34902879	     -5.85424982	    158.49699446	   -162.37646994	    114.39950978	    118.36659450	    109.05143179	    142.35336437	   -168.94716361	    132.61367189	     84.44261628	     82.12784454
      1.61000000	      4.75960934	     -4.07489472	      4.38459196	     -0.32962438	      0.89670616	     -0.56233032	     37.52005785	      4.55684279	     -1.92959941	     70.30284073	      1.22701604	     23.50057403	    -17.50966550	     -7.47758510	     39.91590329	     -5.66801231	      4.83901018	     72.26193037	      1.26120861	     25.97026381	     -9.66011551	     -7.47758510	    -19.64203441	      1.64613306	     -5.54497724	    162.70643030	   -164.35726723	    121.20215408	    115.82538281	    109.22321316	    148.50869618	   -169.51673698	    138.21787049	     81.85386656	     82.04589022
